<svg xmlns="http://www.w3.org/2000/svg" width="600" height="348.687" viewBox="0 0 600 348.687"><path d="M541.469 262.522c-10.655.555-9.863-5.794-9.909-11.726-.025-3.306.687-7.126-.689-9.816-3.51-6.866 2.235-8.08 5.7-8.953 4.827-1.218 5.998 2.977 6.045 7.015.066 5.656.016 11.313.016 16.97l5.588.015c.875-29.874.376-59.79.281-89.286-5.264-2.355-9.468-1.607-13.128-.16-14.671 5.799-29.648 9.782-45.439 11.33-3.925.385-11.689 1.283-9.956 8.91 4.163 18.32 2.329 36.504.118 54.78-.703 5.815-.487 11.63 5.97 16.004 2.02-25.072 8.844-48.597 7.98-75.556 9.41 6.918 8.7 13.173 8.473 19.356-.855 23.195-1.638 46.393-2.447 69.59h8.882c4.708-9.243 6.051-19.207 2.582-28.734-1.408-3.867-1.862-6.61-.065-9.699 5.435-9.343 4.862-19.573 5.088-29.792.199-8.985 1.05-17.956 1.62-27.013 8.773.555 8.378 5.576 8.22 10.49-.698 21.756-1.682 43.51-1.946 65.272-.144 11.916 6.626 16.897 17.016 11.003zm-102.954-71.189c-15.481 4.36-31.8 2.775-47.725 7.203 5.47 14.553-5.769 31.472 7.288 44.48 19.155-4.42 9.576-20.813 14.525-31.17 3.27-1.547 2.62 5.601 6.083 3.285 5.584-3.924 2.743-11.068 6.537-17.027l4.938 15.178c3.347-5.059-2.314-13.114 7.052-15.34v38.112c-4.034-9.487-11.72-6.55-19.356-6.906-.657 5.592-1.674 10.634-1.718 15.683-.041 4.786-3.014 11.226 3.78 13.575 7.017 2.426 14.388 3.077 20.107-4.299-2.952-1.735-8.38 1.348-8.234-4.975.161-6.97 5.873-7.608 10.682-9.739 1.799-13.773-2.06-26.739 2.664-39.365 1.667-4.454-1.267-10.203-6.623-8.695zm35.497 1.15c-.947-8.65-4.273-11.256-13.379-6.764 9.757 22.522-3.368 46.456 3.498 70.534 2.132-1.699 3.789-2.567 3.682-3-2.171-8.782 2.507-16.663 3.124-24.746.914-11.981 4.415-23.774 3.075-36.024zm-19.644 51.13v-53.716c-6.441 17.836.06 35.806 0 53.716zM201.903 123.372c9.805 2.609 17.347-1.053 24.475-5.661 5.861 10.529 14.193 10.54 23.772-.002-4.284-5.77-9.608-4.672-15.142-4.943-9.682-.474-20.596 4.613-28.748-5.47-1.37-1.696-5.14-1.775-8.284.868 6.737 3.742 3.938 10.078 3.927 15.208zM306.89 246.197c4.429-12.456.084-19.703-8.536-19.665-15.222.066-11.365-9.779-11.045-17.604.246-6.027 4.097-10.282 10.7-10.148 5.954.12 9.802 2.898 9.38 9.638-.11 1.75-.086 3.845 2.747 3.438 3.313-15.085 3.199-15.232-11.568-16.236-2.195-.149-4.373-.61-6.568-.697-5.325-.21-8.347 2.23-8.355 7.766-.02 13.886-.006 27.772-.006 40.78 9.727 3.985 15.858 2.102 20.144-5.743l3.107 8.471zm25.317-49.18c-5.448-2.004-9.566-1.355-14.378.032l.621 11.004c5.842-2.764 9.378-6.737 13.757-11.035zm9.025-1.199c-2.894 6.157-1.297 12.152-1.71 17.965-.33 4.607 1.967 10.697-3.317 13.091-5.675 2.571-12.206 2.888-17.877-1.475.258 24.51 3.907 29.741 19.129 26.444-1.848-5.728.973-9.728 5.6-12.697 2.386-1.531 3.505-3.406 3.707-6.273.674-9.586 1.469-19.167 2.446-28.727.56-5.48-1.415-8.36-7.978-8.328zm17.842.976c-.646.102-1.201.779-2.526 1.685 0 11.25-.044 22.992.016 34.735.037 7.345 6.772 12.287 10.902 10.544 6.406-2.706 8.17 1.539 12.48 3.236 6.924-8.81 4.212-18.836 4.581-28.132 1.03-25.984.559-26.168-25.453-22.068zm-133.66 54.926c-8.312-3.636-16.411-1.813-24.507.931 8.196 1.756 16.377 2.779 24.508-.931zm321.99-171.872c2.922-7.952-.218-12.631-6.813-15.333-6.886-2.82-10.033 2.164-13.293 6.823-3.69 5.276-3.384 11.185-2.754 17.075 1.007 9.416-8.085 8.045-12.453 11.561-2.914 2.346-6.028-.539-6.79-3.356-1.114-4.11-1.517-8.731-7.159-7.405-5.648 1.33-8.018 6.084-8.707 11.599-2.064 16.543-8.03 19.921-21.641 12.1-4.436 1.768-5.378 5.43-5.477 9.78-.077 3.348-2.994 4.45-5.44 4.164-2.402-.282-4.726-1.932-5.41-4.85-1.006-4.284 1.287-6.878 4.374-9.265 18.07-13.97 36.514-27.666 55.342-40.328 26.449-17.788 52.709-35.863 78.964-53.94 1.837-1.265 4.709-1.875 4.784-5.086-1.223-.673-2.676-1.873-3.028-1.608-11.88 8.928-29.16 7.004-39.22 19.495-5.958 7.396-14.53 11.24-22.013 16.612-23.327 16.745-47.48 32.686-68.823 51.73-15.118 13.488-32.138 9.986-48.66 12.64-3.14.504-7.856.435-9.638-1.453-7.237-7.667-13.198-8.726-19.23 1.03-.445.721-2.769.322-4.222.375-9.368.346-18.782-3.36-28.186 1.003-2.694 1.25-5.53-1.203-6.968-4.177-3.256-6.732-5.969-6.855-10.858-.612-5.927 7.569-14.994 4.155-22.407 2.683-7.052-1.401-4.348-8.531-4.14-13.235.399-9.003-3.519-15.336-9.578-21.433-11.425 14.653-11.366 14.644-8.86 30.574.438 2.785.203 5.675.25 8.521 6.856-2.108 13.65-4.188 16.038 6.029.613 2.625 3.08 3.626 5.218 2.845 9.732-3.558 21.841-.183 28.74-10.257 4.311 1.476-.3 8.979 5.996 7.743 8.548-1.677 16.648 10.383 25.375.658.477-.53 2.242-.304 3.216.07 11.703 4.496 24.036 2.391 36.05 3.567 7.969.78 15.327.48 18.16-8.633 6.164 7.674 20.413 2.773 21.233 13.867H171.46c3.298-10.039 10.092-8.63 16.008-8.95 3.806-.207 6.515-1.298 6.551-5.657.036-4.305-3.359-4.495-6.188-4.622-5.86-.262-11.741-.079-16.192-.079-4.811 2.522-2.558 6.998-4.956 9.111-6.926-.265-9.608-6.37-14.11-9.817C106.39 76.04 60.415 40.402 14.317 4.924c-3.52-2.71-8.355-8.396-11.703-1.992C.52 6.939.31 14.509 8.074 17.152c2.742.934 6.842 1.9 4.692 6.625-4.154-1.45-6.938-5.754-12.103-5.04-2.358 34.94 2.44 69.626 1.064 104.322-.453 11.428.765 20.583 12.33 25.514l1.159 1.928c-.841-.041-1.682-.082-2.524-.117-3.828-.49-7.506-3.157-10.72-1.422 0 15.7-.132 30.755.063 45.805.085 6.497-2.81 14.397 7.496 16.814 2.914.683 1.626 4.452 1.595 6.92-.106 8.475-.196 16.952-.436 25.424-.45 15.893 1.713 18.843 17.214 23.014 9.01 2.425 15.308-2.195 15.326-11.512.025-12.934-.625-25.886-.136-38.798.398-10.499.867-21.15 4.943-33.5 7.002 23.756 4.473 45.328 1.834 66.91-.55 4.499-3.115 8.981 2.57 12.81 5.332 3.591 9.37 1.415 14.327-.278 6.508-2.222 5.863-7.36 5.326-11.771-2.435-19.965 3.596-39.498 2.636-59.371-.146-3.024.09-6.75 4.694-8.75 2.492 8.253 3.871 16.338 3.512 24.738-.665 15.505-1.379 31.009-1.903 46.52-.16 4.732-.667 10.191 4.623 12.552 3.51 1.566 7.347-.3 10.338-2.547 4.582-3.441 1.858-7.67 1.505-12.974l-9.669 6.44c-5.226-5.86-2.064-8.857 2.923-9.898 7.599-1.588 8.946-6.376 8.675-12.994-.536-13.097-.145-26.17 2.598-39.224 1.78 14.299 6.118 28.057 4.327 42.982-1.35 11.242-6.605 24.461 7.328 32.72h33.31c4.704-9.838 11.215-15.91 23.434-14.168 4.487.64 9.04-2.64 9.621-8.406-6.52-6.276-13.1 2.953-20.53-.905l2.609-42.937c4.653 4.81 8.36 3.2 14.243-3.223-3.555 22.718-.357 39.939 16.492 52.29 20.31-9.006 14.929-28.617 18.725-45.194.526 7.997.857 16.013 1.647 23.983.506 5.103-1.779 12.81 6.282 13.17 8.465.376 18.905 5.244 24.451-6.533.922-1.956 2.312-3.691 3.88-6.146l10.813 16.218c-7.485-.308-14.438-3.152-20.245 2.723 31.761 8.791 39.935 4.27 36.96-20.015-17.507-4.114-20.508-9.744-15.114-28.602 4.108-2.204 9.516 1.302 15.328-4.691-10.293-1.873-18.989-1.026-28.445-.75-.014 8.117 3.915 15.565 1.142 24.317-8.944-5.784-11.264-13.686-9.6-23.096-4.465-4.436-14.533 1.229-15.12-9.022l-3.289-3.434c-10.208-1.421-12.182-9.324-13.705-17.513-1.004-5.4-1.847-10.831-2.841-16.72-7.971-3.922-22.297 8.178-25.355-9.055 4.489-4.92 10.173-4.289 15.687-4.247 80.89.612 161.783.953 242.664 2.126 13.381.195 25.14-2.912 36.506-8.897 41.11-21.644 82.137-43.444 123.18-65.216 1.288-.684 2.396-1.709 3.589-2.575v-6.662c-11.544.929-20.039 8.919-30.208 13.02-7.294 2.942-13.442 8.93-22.388 9.014zm-416.937 62.239c6.957 10.13 2.367 15.936-2.976 24.905l2.976-24.905zm-23.582-15.097c2.942 12.064 1.362 22.278 1.93 32.92-12.204-4.428-13.295-19.312-1.93-32.92zM13.108 60c29.02 11.279 56.02 26.495 81.904 43.467C65.903 92.171 38.35 78.301 13.108 60zm59.552 94.065l-2.291-42.41c12.822 9.278 13.867 29.264 2.29 42.41zm-19.13-47.486v34.839c-13.358-6.226-13.373-16.913 0-34.839zm69.701 127.686c-4.513-12.508-2.473-25.198 0-37.91v37.91zm15.22-10.945l-2.336-28.67c8.375 9.904 7.798 17.654 2.336 28.67zm14.099-20.448l3.493 34.584c-10.512-6.56-11.342-14.999-3.493-34.584zM29.848 150.66c46.838 12.105 94.377 21.753 139.487 39.927-46.746-12.43-95.583-17.52-139.487-39.927zm337.434-.62c-5.46-.784-8.351 3.34-9.034 7.526-1.035 6.347-1.244 12.989.392 19.657h15.226c0-6.826-.05-12.657.016-18.487.054-4.667-1.87-8.017-6.6-8.696zm-78.234-34.204c.1-.018.2-.032.3-.052l-.145-.167.149.17c-.002-.085-.001-.17-.003-.256l-.175.054c-.04.087-.085.166-.126.251zm119.59 47.851c.038-1.837.076-3.675.153-5.51.241-5.741-1.84-9.093-8.242-8.898-6.122.187-9.765 2.194-9.343 9.137.35 5.77.072 11.577.072 17.16 16.056 3.215 17.065 2.47 17.36-11.889zm-109.72-13.726c-16.147 1.922-3.983 16.078-9.172 24.234 10.072 3.16 17.18 3.533 16.258-7.976-.493-6.149 5.424-17.747-7.086-16.258zm24.493 27.88l14.478-2.974V150.65h-15.787c.923 9.632-1.067 18.223 1.309 27.193zM580.797 33.598c-3.473 6.355-4.16 14.498-4.882 21.968-.318 3.297 2.344 4.946 6.908 3.408 7.187-2.422 11.104-8.717 17.177-12.263V28.946c-8.206-5.912-15.445-2.222-19.203 4.652zM229.991 150.453c-3.508 1.071-5.897 2.983-5.912 6.939-.024 6.22-.007 12.439-.007 19.495 6.017.761 11.568 1.874 13.688-3.638 2.49-6.474 3.912-13.627-.023-20.262-1.64-2.763-4.497-3.526-7.746-2.534zm39.134.187c-3.838.47-10.932-2.555-11.142 5.127-.195 7.11-1.676 14.76 3.677 20.94 13.99-.62 8.279-12.178 11.735-18.44 1.973-3.573.594-8.222-4.27-7.627zm-15.242-46.26c3.573 7.677.43 19.115 11.461 20.01 8.662.704 18.624 1.84 23.704-8.553-13.459 2.507-23.766-6.01-35.165-11.458zm330.56 128.266c3.846-24.988-.159-49.905 5.511-74.331-7.546 0-15.779-.815-23.766.237-7.5.987-13.37 4.414-8.132 14.037 1.434 2.634 1 6.448.93 9.709-.512 23.599-1.195 47.194-1.706 70.794-.085 3.902-.8 8.075 2.146 11.37 12.551-1.06 16.407-4.656 14.649-16.492-1.392-9.373.252-15.078 10.369-15.324zm3.008-142.5c-4.656 2.153-4.428 5.933-4.235 10.238.195 4.366-.408 8.826-1.144 13.163-1.157 6.814 3.238 10.063 8.354 10.68 6.88.831 4.94-5.541 5.698-9.482.702-3.648-3.804-9.275 3.876-10.298V93.344c-3.471-3.855-7.444-5.557-12.549-3.198zm-348.467 99.35c38.964-.142 77.929-.227 116.893-.33 29.637 1.464 59.413 2.03 88.274-5.501 48.482-12.652 96.604-26.683 144.89-40.087 4.89-1.357 8.765-3.305 8.045-9.763-9.675-3.64-17.936 4.617-27.13 2.86l-2.537-.046 1.305-1.258v-33.46c-9.32-1.13-13.633 1.784-12.895 10.764.739 8.989.7 18.062 3.681 27.143-6.522.76-11.612 6.847-18.497 3.899-1.902-10.301 1.81-20.785-3.08-31.791-13.986 11.372-1.984 24.402-4.925 36.283l-11.782 3.29c-5.016-8.054 2.931-18.531-6.391-25.027-7.73 6.623-4.029 14.632-3.972 21.975.031 3.969-.483 8.054-5.082 8.477-5.4.497-5.12-4.014-5.123-7.759-.005-5.942-.001-11.885-.001-19.917-12.578 8.919-1.05 23.278-11.066 29.832-5.186-.565-2.681-8.276-8.53-7.601-1.508 3.888-1.516 12.393-5.216 10.456-8.71-4.557-9.66 3.518-13.65 6.057-3.394 2.16-6.636 5.326-10.554 4.227-4.934-1.384-3.762-6.54-4.25-10.43-.182-1.46-.314-2.975-.134-4.423.842-6.78-3.021-7.84-8.668-8.138-6.228-.33-9.003 2.056-8.99 8.12.008 4.434-.428 8.91.045 13.29.641 5.931-3.053 9.601-7.335 10.701-6.186 1.59-12.427 3.399-19.27 2.906-15.802-1.139-31.669-.545-47.482.735l-135.282 1.593 3.289 3.433c5.14-.178 10.28-.49 15.42-.51zM17.028 303.114H4.882v44.958H34.34v-9.81H17.028v-35.148zm40.56 16.667l-7.687-16.667H36.678l14.791 27.768v17.19h12.24v-17.559l14.79-27.4H65.338l-7.75 16.668zm45.789-7.35c1.907 0 3.69.267 5.35.8s3.322 1.19 4.982 1.968l3.721-9.564c-4.428-2.111-9.071-3.167-13.93-3.167-4.449 0-8.318.948-11.608 2.845s-5.812 4.607-7.565 8.133c-1.753 3.526-2.63 7.616-2.63 12.27 0 7.442 1.81 13.13 5.428 17.067 3.618 3.935 8.82 5.904 15.606 5.904 4.736 0 8.98-.83 12.73-2.491v-10.27a57.867 57.867 0 0 1-5.627 1.998c-1.865.553-3.792.83-5.78.83-6.581 0-9.871-4.325-9.871-12.976 0-4.162.81-7.427 2.429-9.795 1.619-2.367 3.874-3.552 6.765-3.552zm33.134-20.356c-.851.983-2.855 3.167-6.012 6.55v.89h7.995c1.476-.922 3.649-2.398 6.52-4.427 2.87-2.03 5.124-3.7 6.765-5.012v-.646h-13.162c-.553.78-1.256 1.66-2.106 2.645zm-12.285 55.997h26.691v-9.902h-14.545v-8.487h13.47v-9.748h-13.47v-7.073h14.545v-9.748h-26.691v44.958zm34.564 0h26.691v-9.902h-14.545v-8.487h13.47v-9.748h-13.47v-7.073h14.545v-9.748H158.79v44.958zm70.942-35.641c1.907 0 3.69.267 5.35.8s3.322 1.19 4.983 1.968l3.72-9.564c-4.428-2.111-9.07-3.167-13.93-3.167-4.448 0-8.317.948-11.608 2.845s-5.812 4.607-7.565 8.133c-1.752 3.526-2.629 7.616-2.629 12.27 0 7.442 1.81 13.13 5.427 17.067 3.619 3.935 8.82 5.904 15.607 5.904 4.735 0 8.979-.83 12.73-2.491v-10.27a57.867 57.867 0 0 1-5.627 1.998c-1.866.553-3.793.83-5.78.83-6.582 0-9.872-4.325-9.872-12.976 0-4.162.81-7.427 2.43-9.795 1.618-2.367 3.874-3.552 6.764-3.552zm41.114-10.024c-7.134 0-12.572 1.973-16.313 5.92s-5.612 9.66-5.612 17.143c0 7.564 1.88 13.325 5.642 17.281 3.762 3.957 9.169 5.936 16.222 5.936 7.154 0 12.587-1.969 16.297-5.904 3.71-3.937 5.566-9.687 5.566-17.251 0-7.585-1.844-13.336-5.535-17.252-3.69-3.915-9.113-5.873-16.267-5.873zm6.78 32.996c-1.486 2.111-3.766 3.167-6.841 3.167-6.048 0-9.072-4.346-9.072-13.038 0-8.775 3.044-13.163 9.133-13.163 2.993 0 5.243 1.073 6.75 3.214 1.507 2.143 2.26 5.458 2.26 9.949 0 4.468-.743 7.76-2.23 9.87zm55.122-11.963c0 2.748.143 6.386.43 10.917h-.184l-16.36-31.243h-15.867v44.958h10.763v-20.265c0-2.624-.196-6.427-.585-11.41h.277l16.421 31.675h15.93v-44.958h-10.825v20.326zm36.102-20.326h-15.561v44.958h14.546c7.482 0 13.289-2.03 17.42-6.09 4.13-4.058 6.196-9.84 6.196-17.343 0-6.97-1.963-12.3-5.889-15.99s-9.497-5.535-16.712-5.535zm7.41 31.78c-1.722 2.143-4.428 3.215-8.118 3.215h-2.707v-25.186h3.538c3.32 0 5.795.995 7.425 2.984s2.446 5.043 2.446 9.163c0 4.408-.862 7.683-2.583 9.825zm43.512-32.487c-7.133 0-12.572 1.973-16.312 5.92-3.742 3.946-5.612 9.66-5.612 17.143 0 7.564 1.88 13.325 5.642 17.281 3.762 3.957 9.17 5.936 16.22 5.936 7.156 0 12.589-1.969 16.3-5.904 3.71-3.937 5.565-9.687 5.565-17.251 0-7.585-1.845-13.336-5.535-17.252-3.69-3.915-9.112-5.873-16.268-5.873zm6.782 32.996c-1.488 2.111-3.768 3.167-6.843 3.167-6.047 0-9.071-4.346-9.071-13.038 0-8.775 3.045-13.163 9.132-13.163 2.994 0 5.244 1.073 6.75 3.214 1.507 2.143 2.261 5.458 2.261 9.949 0 4.468-.743 7.76-2.23 9.87zm56.197-19.005c0-8.856-6.11-13.284-18.328-13.284h-14.73v44.958h12.147v-16.36h3.075l9.533 16.36h13.777l-13.1-19.588c5.084-2.85 7.626-6.878 7.626-12.086zm-18.635 6.181h-2.276v-10.271h2.4c4.16 0 6.241 1.549 6.241 4.643 0 3.752-2.122 5.628-6.365 5.628zm48.218-10.148c1.906 0 3.69.267 5.35.8 1.66.533 3.32 1.19 4.982 1.968l3.72-9.564c-4.427-2.111-9.07-3.167-13.929-3.167-4.45 0-8.318.948-11.61 2.845-3.29 1.896-5.81 4.607-7.564 8.133-1.753 3.526-2.629 7.616-2.629 12.27 0 7.442 1.809 13.13 5.428 17.067 3.618 3.935 8.82 5.904 15.605 5.904 4.737 0 8.98-.83 12.732-2.491v-10.27a57.921 57.921 0 0 1-5.628 1.998c-1.865.553-3.793.83-5.781.83-6.58 0-9.871-4.325-9.871-12.976 0-4.162.81-7.427 2.43-9.795 1.618-2.367 3.874-3.552 6.765-3.552zm20.849 35.64h26.692v-9.9h-14.546v-8.488h13.47v-9.748h-13.47v-7.073h14.546v-9.748h-26.692v44.958zm31.273-35.025h10.978v35.026h12.147v-35.026h10.947v-9.932h-34.072v9.932z" fill="#676767"/></svg>